<svg xmlns="http://www.w3.org/2000/svg" width="31.556" height="20" viewBox="0 0 31.556 30">
  <g id="Grupo_3487" data-name="Grupo 3487" transform="translate(-72.629 -628.957)">
    <g id="Grupo_3019" data-name="Grupo 3019" transform="translate(74.771 637.148)">
      <path id="Trazado_2624" data-name="Trazado 2624" d="M102.809,661.823H75.52V640.015h27.289Zm-25.947-1.341h24.6V641.357h-24.6Z" transform="translate(-75.52 -640.015)" fill="#3c3c3c"/>
    </g>
    <g id="Grupo_3020" data-name="Grupo 3020" transform="translate(83.767 644.698)">
      <path id="Trazado_2625" data-name="Trazado 2625" d="M97.57,664.465h-9.9V650.206h9.9Zm-8.563-1.342h7.221V651.548H89.007Z" transform="translate(-87.665 -650.206)" fill="#3c3c3c"/>
    </g>
    <g id="Grupo_3027" data-name="Grupo 3027" transform="translate(72.629 628.957)">
      <g id="Grupo_3021" data-name="Grupo 3021" transform="translate(0.017)">
        <path id="Trazado_2626" data-name="Trazado 2626" d="M75.983,628.957h24.725l3.484,10.14H72.652Z" transform="translate(-72.652 -628.957)" fill="#3c3c3c"/>
      </g>
      <g id="Grupo_3022" data-name="Grupo 3022" transform="translate(0 7.358)">
        <circle id="Elipse_193" data-name="Elipse 193" cx="3.289" cy="3.289" r="3.289" fill="#3c3c3c"/>
      </g>
      <g id="Grupo_3023" data-name="Grupo 3023" transform="translate(6.27 7.358)">
        <circle id="Elipse_194" data-name="Elipse 194" cx="3.289" cy="3.289" r="3.289" fill="#3c3c3c"/>
      </g>
      <g id="Grupo_3024" data-name="Grupo 3024" transform="translate(12.488 7.358)">
        <circle id="Elipse_195" data-name="Elipse 195" cx="3.289" cy="3.289" r="3.289" fill="#3c3c3c"/>
      </g>
      <g id="Grupo_3025" data-name="Grupo 3025" transform="translate(18.758 7.358)">
        <circle id="Elipse_196" data-name="Elipse 196" cx="3.289" cy="3.289" r="3.289" fill="#3c3c3c"/>
      </g>
      <g id="Grupo_3026" data-name="Grupo 3026" transform="translate(24.977 7.358)">
        <circle id="Elipse_197" data-name="Elipse 197" cx="3.289" cy="3.289" r="3.289" fill="#3c3c3c"/>
      </g>
    </g>
  </g>
</svg>
